<?xml version="1.0" encoding="utf-8"?>
<!-- Generator: Adobe Illustrator 15.0.2, SVG Export Plug-In . SVG Version: 6.00 Build 0)  -->
<!DOCTYPE svg PUBLIC "-//W3C//DTD SVG 1.1//EN" "http://www.w3.org/Graphics/SVG/1.1/DTD/svg11.dtd">
<svg version="1.1" id="Layer_1" xmlns="http://www.w3.org/2000/svg" xmlns:xlink="http://www.w3.org/1999/xlink" x="0px" y="0px"
	 width="50px" height="50px" viewBox="0 0 50 50" enable-background="new 0 0 50 50" xml:space="preserve">
<g>
	<g>
		<path fill="#BDC3C7" d="M44.091,29.824c0,0.402-0.326,0.73-0.729,0.73H12.926c-0.403,0-0.731-0.328-0.731-0.73v-4.57
			c0-0.403,0.328-0.731,0.731-0.731h30.436c0.403,0,0.729,0.328,0.729,0.731V29.824z"/>
		<circle fill="#BDC3C7" cx="42.861" cy="23.883" r="6.671"/>
		<circle fill="#BDC3C7" cx="13.683" cy="23.883" r="6.672"/>
		<circle fill="#BDC3C7" cx="28.144" cy="20.958" r="9.597"/>
	</g>
	<g>
		<path fill="#ECF0F1" d="M37.549,33.572c0,0.402-0.328,0.729-0.73,0.729H6.382c-0.404,0-0.731-0.326-0.731-0.729v-4.57
			c0-0.404,0.328-0.732,0.731-0.732h30.436c0.402,0,0.73,0.328,0.73,0.732V33.572z"/>
		<circle fill="#ECF0F1" cx="36.316" cy="27.631" r="6.672"/>
		<circle fill="#ECF0F1" cx="7.139" cy="27.631" r="6.672"/>
		<circle fill="#ECF0F1" cx="21.6" cy="24.705" r="9.596"/>
	</g>
</g>
</svg>
