<?xml version="1.0" encoding="utf-8"?>
<!-- Generator: Adobe Illustrator 15.0.2, SVG Export Plug-In . SVG Version: 6.00 Build 0)  -->
<!DOCTYPE svg PUBLIC "-//W3C//DTD SVG 1.1//EN" "http://www.w3.org/Graphics/SVG/1.1/DTD/svg11.dtd">
<svg version="1.1" id="Layer_1" xmlns="http://www.w3.org/2000/svg" xmlns:xlink="http://www.w3.org/1999/xlink" x="0px" y="0px"
	 width="50px" height="50px" viewBox="0 0 50 50" enable-background="new 0 0 50 50" xml:space="preserve">
<g>
	<g>
		
			<line fill="none" stroke="#8DD6FF" stroke-linecap="round" stroke-miterlimit="10" x1="8.134" y1="29.392" x2="7.148" y2="30.376"/>
		
			<line fill="none" stroke="#8DD6FF" stroke-linecap="round" stroke-miterlimit="10" x1="12.492" y1="29.392" x2="11.507" y2="30.376"/>
		
			<line fill="none" stroke="#8DD6FF" stroke-linecap="round" stroke-miterlimit="10" x1="9.71" y1="30.438" x2="8.726" y2="31.422"/>
		
			<line fill="none" stroke="#8DD6FF" stroke-linecap="round" stroke-miterlimit="10" x1="16.851" y1="29.392" x2="15.866" y2="30.376"/>
		
			<line fill="none" stroke="#8DD6FF" stroke-linecap="round" stroke-miterlimit="10" x1="14.069" y1="30.438" x2="13.085" y2="31.422"/>
		
			<line fill="none" stroke="#8DD6FF" stroke-linecap="round" stroke-miterlimit="10" x1="21.208" y1="29.392" x2="20.225" y2="30.376"/>
		
			<line fill="none" stroke="#8DD6FF" stroke-linecap="round" stroke-miterlimit="10" x1="18.428" y1="30.438" x2="17.443" y2="31.422"/>
		
			<line fill="none" stroke="#8DD6FF" stroke-linecap="round" stroke-miterlimit="10" x1="25.567" y1="29.392" x2="24.583" y2="30.376"/>
		
			<line fill="none" stroke="#8DD6FF" stroke-linecap="round" stroke-miterlimit="10" x1="22.786" y1="30.438" x2="21.801" y2="31.422"/>
		
			<line fill="none" stroke="#8DD6FF" stroke-linecap="round" stroke-miterlimit="10" x1="29.926" y1="29.392" x2="28.94" y2="30.376"/>
		
			<line fill="none" stroke="#8DD6FF" stroke-linecap="round" stroke-miterlimit="10" x1="27.144" y1="30.438" x2="26.161" y2="31.422"/>
		
			<line fill="none" stroke="#8DD6FF" stroke-linecap="round" stroke-miterlimit="10" x1="34.284" y1="29.392" x2="33.3" y2="30.376"/>
		
			<line fill="none" stroke="#8DD6FF" stroke-linecap="round" stroke-miterlimit="10" x1="31.503" y1="30.438" x2="30.521" y2="31.422"/>
		
			<line fill="none" stroke="#8DD6FF" stroke-linecap="round" stroke-miterlimit="10" x1="38.643" y1="29.392" x2="37.66" y2="30.376"/>
		
			<line fill="none" stroke="#8DD6FF" stroke-linecap="round" stroke-miterlimit="10" x1="35.861" y1="30.438" x2="34.877" y2="31.422"/>
	</g>
	
		<line fill="none" stroke="#8DD6FF" stroke-linecap="round" stroke-miterlimit="10" x1="43.979" y1="25.999" x2="42.993" y2="26.982"/>
	
		<line fill="none" stroke="#8DD6FF" stroke-linecap="round" stroke-miterlimit="10" x1="41.696" y1="28.695" x2="40.71" y2="29.682"/>
	
		<line fill="none" stroke="#8DD6FF" stroke-linecap="round" stroke-miterlimit="10" x1="39.41" y1="31.188" x2="38.427" y2="32.17"/>
	<g>
		<g>
			
				<line fill="none" stroke="#8DD6FF" stroke-linecap="round" stroke-miterlimit="10" x1="5.851" y1="32.089" x2="4.865" y2="33.072"/>
			
				<line fill="none" stroke="#8DD6FF" stroke-linecap="round" stroke-miterlimit="10" x1="10.209" y1="32.089" x2="9.225" y2="33.072"/>
			
				<line fill="none" stroke="#8DD6FF" stroke-linecap="round" stroke-miterlimit="10" x1="7.427" y1="33.138" x2="6.443" y2="34.12"/>
			
				<line fill="none" stroke="#8DD6FF" stroke-linecap="round" stroke-miterlimit="10" x1="14.567" y1="32.089" x2="13.583" y2="33.072"/>
			
				<line fill="none" stroke="#8DD6FF" stroke-linecap="round" stroke-miterlimit="10" x1="11.786" y1="33.138" x2="10.801" y2="34.12"/>
			
				<line fill="none" stroke="#8DD6FF" stroke-linecap="round" stroke-miterlimit="10" x1="18.926" y1="32.089" x2="17.941" y2="33.072"/>
			
				<line fill="none" stroke="#8DD6FF" stroke-linecap="round" stroke-miterlimit="10" x1="16.145" y1="33.138" x2="15.16" y2="34.12"/>
			
				<line fill="none" stroke="#8DD6FF" stroke-linecap="round" stroke-miterlimit="10" x1="23.285" y1="32.089" x2="22.3" y2="33.072"/>
			
				<line fill="none" stroke="#8DD6FF" stroke-linecap="round" stroke-miterlimit="10" x1="20.503" y1="33.138" x2="19.519" y2="34.12"/>
			
				<line fill="none" stroke="#8DD6FF" stroke-linecap="round" stroke-miterlimit="10" x1="27.644" y1="32.089" x2="26.657" y2="33.072"/>
			
				<line fill="none" stroke="#8DD6FF" stroke-linecap="round" stroke-miterlimit="10" x1="24.861" y1="33.138" x2="23.877" y2="34.12"/>
			
				<line fill="none" stroke="#8DD6FF" stroke-linecap="round" stroke-miterlimit="10" x1="32.002" y1="32.089" x2="31.018" y2="33.072"/>
			
				<line fill="none" stroke="#8DD6FF" stroke-linecap="round" stroke-miterlimit="10" x1="29.22" y1="33.138" x2="28.236" y2="34.12"/>
			
				<line fill="none" stroke="#8DD6FF" stroke-linecap="round" stroke-miterlimit="10" x1="36.361" y1="32.089" x2="35.376" y2="33.072"/>
			
				<line fill="none" stroke="#8DD6FF" stroke-linecap="round" stroke-miterlimit="10" x1="33.579" y1="33.138" x2="32.595" y2="34.12"/>
		</g>
		
			<line fill="none" stroke="#8DD6FF" stroke-linecap="round" stroke-miterlimit="10" x1="37.336" y1="33.471" x2="36.352" y2="34.454"/>
	</g>
	<g>
		<g>
			
				<line fill="none" stroke="#8DD6FF" stroke-linecap="round" stroke-miterlimit="10" x1="3.775" y1="34.786" x2="2.79" y2="35.772"/>
			
				<line fill="none" stroke="#8DD6FF" stroke-linecap="round" stroke-miterlimit="10" x1="8.134" y1="34.786" x2="7.148" y2="35.772"/>
			
				<line fill="none" stroke="#8DD6FF" stroke-linecap="round" stroke-miterlimit="10" x1="5.352" y1="35.834" x2="4.367" y2="36.819"/>
			
				<line fill="none" stroke="#8DD6FF" stroke-linecap="round" stroke-miterlimit="10" x1="12.492" y1="34.786" x2="11.507" y2="35.772"/>
			
				<line fill="none" stroke="#8DD6FF" stroke-linecap="round" stroke-miterlimit="10" x1="9.71" y1="35.834" x2="8.726" y2="36.819"/>
			
				<line fill="none" stroke="#8DD6FF" stroke-linecap="round" stroke-miterlimit="10" x1="16.851" y1="34.786" x2="15.866" y2="35.772"/>
			
				<line fill="none" stroke="#8DD6FF" stroke-linecap="round" stroke-miterlimit="10" x1="14.069" y1="35.834" x2="13.085" y2="36.819"/>
			
				<line fill="none" stroke="#8DD6FF" stroke-linecap="round" stroke-miterlimit="10" x1="21.208" y1="34.786" x2="20.225" y2="35.772"/>
			
				<line fill="none" stroke="#8DD6FF" stroke-linecap="round" stroke-miterlimit="10" x1="18.428" y1="35.834" x2="17.443" y2="36.819"/>
			
				<line fill="none" stroke="#8DD6FF" stroke-linecap="round" stroke-miterlimit="10" x1="25.567" y1="34.786" x2="24.583" y2="35.772"/>
			
				<line fill="none" stroke="#8DD6FF" stroke-linecap="round" stroke-miterlimit="10" x1="22.786" y1="35.834" x2="21.801" y2="36.819"/>
			
				<line fill="none" stroke="#8DD6FF" stroke-linecap="round" stroke-miterlimit="10" x1="29.926" y1="34.786" x2="28.94" y2="35.772"/>
			
				<line fill="none" stroke="#8DD6FF" stroke-linecap="round" stroke-miterlimit="10" x1="27.144" y1="35.834" x2="26.161" y2="36.819"/>
			
				<line fill="none" stroke="#8DD6FF" stroke-linecap="round" stroke-miterlimit="10" x1="34.284" y1="34.786" x2="33.3" y2="35.772"/>
			
				<line fill="none" stroke="#8DD6FF" stroke-linecap="round" stroke-miterlimit="10" x1="31.503" y1="35.834" x2="30.521" y2="36.819"/>
		</g>
		
			<line fill="none" stroke="#8DD6FF" stroke-linecap="round" stroke-miterlimit="10" x1="35.261" y1="36.169" x2="34.276" y2="37.152"/>
	</g>
	<g>
		<g>
			
				<line fill="none" stroke="#8DD6FF" stroke-linecap="round" stroke-miterlimit="10" x1="1.699" y1="37.278" x2="0.715" y2="38.262"/>
			
				<line fill="none" stroke="#8DD6FF" stroke-linecap="round" stroke-miterlimit="10" x1="6.058" y1="37.278" x2="5.074" y2="38.262"/>
			
				<line fill="none" stroke="#8DD6FF" stroke-linecap="round" stroke-miterlimit="10" x1="3.276" y1="38.323" x2="2.292" y2="39.309"/>
			
				<line fill="none" stroke="#8DD6FF" stroke-linecap="round" stroke-miterlimit="10" x1="10.416" y1="37.278" x2="9.432" y2="38.262"/>
			
				<line fill="none" stroke="#8DD6FF" stroke-linecap="round" stroke-miterlimit="10" x1="7.635" y1="38.323" x2="6.65" y2="39.309"/>
			
				<line fill="none" stroke="#8DD6FF" stroke-linecap="round" stroke-miterlimit="10" x1="14.775" y1="37.278" x2="13.791" y2="38.262"/>
			
				<line fill="none" stroke="#8DD6FF" stroke-linecap="round" stroke-miterlimit="10" x1="11.994" y1="38.323" x2="11.009" y2="39.309"/>
			
				<line fill="none" stroke="#8DD6FF" stroke-linecap="round" stroke-miterlimit="10" x1="19.133" y1="37.278" x2="18.149" y2="38.262"/>
			
				<line fill="none" stroke="#8DD6FF" stroke-linecap="round" stroke-miterlimit="10" x1="16.353" y1="38.323" x2="15.368" y2="39.309"/>
			
				<line fill="none" stroke="#8DD6FF" stroke-linecap="round" stroke-miterlimit="10" x1="23.492" y1="37.278" x2="22.507" y2="38.262"/>
			
				<line fill="none" stroke="#8DD6FF" stroke-linecap="round" stroke-miterlimit="10" x1="20.71" y1="38.323" x2="19.726" y2="39.309"/>
			
				<line fill="none" stroke="#8DD6FF" stroke-linecap="round" stroke-miterlimit="10" x1="27.851" y1="37.278" x2="26.866" y2="38.262"/>
			
				<line fill="none" stroke="#8DD6FF" stroke-linecap="round" stroke-miterlimit="10" x1="25.069" y1="38.323" x2="24.085" y2="39.309"/>
			
				<line fill="none" stroke="#8DD6FF" stroke-linecap="round" stroke-miterlimit="10" x1="32.21" y1="37.278" x2="31.225" y2="38.262"/>
			
				<line fill="none" stroke="#8DD6FF" stroke-linecap="round" stroke-miterlimit="10" x1="29.427" y1="38.323" x2="28.443" y2="39.309"/>
		</g>
		
			<line fill="none" stroke="#8DD6FF" stroke-linecap="round" stroke-miterlimit="10" x1="33.186" y1="38.659" x2="32.2" y2="39.644"/>
	</g>
	
		<line fill="none" stroke="#8DD6FF" stroke-linecap="round" stroke-miterlimit="10" x1="40.988" y1="27.045" x2="40.002" y2="28.03"/>
	<g>
		<g>
			<path fill="#BDC3C7" d="M44.602,24.625c0,0.381-0.308,0.688-0.687,0.688H15.338c-0.38,0-0.687-0.307-0.687-0.688v-4.291
				c0-0.379,0.307-0.687,0.687-0.687h28.577c0.379,0,0.687,0.307,0.687,0.687V24.625z"/>
			<circle fill="#BDC3C7" cx="43.446" cy="19.046" r="6.265"/>
			<circle fill="#BDC3C7" cx="16.048" cy="19.046" r="6.265"/>
			<circle fill="#BDC3C7" cx="29.626" cy="16.301" r="9.011"/>
		</g>
		<g>
			<path fill="#ECF0F1" d="M38.458,28.143c0,0.381-0.308,0.688-0.686,0.688H9.193c-0.378,0-0.686-0.308-0.686-0.688v-4.29
				c0-0.378,0.308-0.686,0.686-0.686h28.58c0.378,0,0.686,0.307,0.686,0.686V28.143z"/>
			<circle fill="#ECF0F1" cx="37.302" cy="22.566" r="6.265"/>
			<circle fill="#ECF0F1" cx="9.904" cy="22.566" r="6.265"/>
			<circle fill="#ECF0F1" cx="23.483" cy="19.819" r="9.011"/>
		</g>
	</g>
</g>
</svg>
