<?xml version="1.0" encoding="utf-8"?>
<!-- Generator: Adobe Illustrator 15.0.2, SVG Export Plug-In . SVG Version: 6.00 Build 0)  -->
<!DOCTYPE svg PUBLIC "-//W3C//DTD SVG 1.1//EN" "http://www.w3.org/Graphics/SVG/1.1/DTD/svg11.dtd">
<svg version="1.1" id="Layer_1" xmlns="http://www.w3.org/2000/svg" xmlns:xlink="http://www.w3.org/1999/xlink" x="0px" y="0px"
	 width="50px" height="50px" viewBox="0 0 50 50" enable-background="new 0 0 50 50" xml:space="preserve">
<g>
	<path fill="none" stroke="#ECF0F1" stroke-linecap="round" stroke-miterlimit="10" d="M30.357,22.736"/>
	<path fill="none" stroke="#ECF0F1" stroke-linecap="round" stroke-miterlimit="10" d="M3.638,18.945c0,0,3.023-2.577,8.533-3.741
		c5.509-1.164,5.74,3.741,10.846,3.741s8.63-3.919,12.787-3.919c4.156,0,8.015,3.919,10.559,3.919"/>
	<path fill="none" stroke="#ECF0F1" stroke-linecap="round" stroke-miterlimit="10" d="M3.638,23.085c0,0,3.023-2.577,8.533-3.741
		c5.509-1.164,5.74,3.741,10.846,3.741s8.63-3.92,12.787-3.92c4.156,0,8.015,3.92,10.559,3.92"/>
	<path fill="none" stroke="#ECF0F1" stroke-linecap="round" stroke-miterlimit="10" d="M3.638,27.226c0,0,3.023-2.577,8.533-3.741
		c5.509-1.163,5.74,3.741,10.846,3.741s8.63-3.919,12.787-3.919c4.156,0,8.015,3.919,10.559,3.919"/>
	<path fill="none" stroke="#ECF0F1" stroke-linecap="round" stroke-miterlimit="10" d="M3.638,31.366c0,0,3.023-2.576,8.533-3.742
		c5.509-1.162,5.74,3.742,10.846,3.742s8.63-3.92,12.787-3.92c4.156,0,8.015,3.92,10.559,3.92"/>
</g>
</svg>
