<?xml version="1.0" encoding="utf-8"?>
<!-- Generator: Adobe Illustrator 15.0.2, SVG Export Plug-In . SVG Version: 6.00 Build 0)  -->
<!DOCTYPE svg PUBLIC "-//W3C//DTD SVG 1.1//EN" "http://www.w3.org/Graphics/SVG/1.1/DTD/svg11.dtd">
<svg version="1.1" id="Layer_1" xmlns="http://www.w3.org/2000/svg" xmlns:xlink="http://www.w3.org/1999/xlink" x="0px" y="0px"
	 width="50px" height="50px" viewBox="0 0 50 50" enable-background="new 0 0 50 50" xml:space="preserve">
<g>
	<g>
		<g>
			<path fill="#BDC3C7" d="M44.853,22.726c0,0.353-0.284,0.638-0.638,0.638H17.664c-0.353,0-0.638-0.286-0.638-0.638v-3.986
				c0-0.352,0.285-0.638,0.638-0.638h26.551c0.354,0,0.638,0.286,0.638,0.638V22.726z"/>
			<circle fill="#BDC3C7" cx="43.779" cy="17.543" r="5.821"/>
			<circle fill="#BDC3C7" cx="18.324" cy="17.543" r="5.821"/>
			<circle fill="#BDC3C7" cx="30.939" cy="14.991" r="8.371"/>
		</g>
		<g>
			<path fill="#ECF0F1" d="M32.249,20.813c0-3.215,2.605-5.821,5.823-5.821c3.213,0,5.819,2.606,5.819,5.821
				c0,3.214-2.606,5.821-5.819,5.821C34.854,26.634,32.249,24.026,32.249,20.813z"/>
			<path fill="#ECF0F1" d="M39.144,25.995c0,0.352-0.283,0.639-0.636,0.639H11.956c-0.353,0-0.639-0.287-0.639-0.639v-3.987
				c0-0.353,0.286-0.639,0.639-0.639h26.552c0.353,0,0.636,0.286,0.636,0.639V25.995z"/>
			<circle fill="#ECF0F1" cx="12.616" cy="20.813" r="5.821"/>
			<circle fill="#ECF0F1" cx="25.231" cy="18.261" r="8.372"/>
		</g>
	</g>
	
		<line fill="none" stroke="#8DD6FF" stroke-linecap="round" stroke-miterlimit="10" x1="10.778" y1="27.153" x2="1.144" y2="36.789"/>
	
		<line fill="none" stroke="#8DD6FF" stroke-linecap="round" stroke-miterlimit="10" x1="15.599" y1="27.153" x2="5.965" y2="36.789"/>
	
		<line fill="none" stroke="#8DD6FF" stroke-linecap="round" stroke-miterlimit="10" x1="20.419" y1="27.153" x2="10.786" y2="36.789"/>
	
		<line fill="none" stroke="#8DD6FF" stroke-linecap="round" stroke-miterlimit="10" x1="25.241" y1="27.153" x2="15.606" y2="36.789"/>
	
		<line fill="none" stroke="#8DD6FF" stroke-linecap="round" stroke-miterlimit="10" x1="30.062" y1="27.153" x2="20.427" y2="36.789"/>
	
		<line fill="none" stroke="#8DD6FF" stroke-linecap="round" stroke-miterlimit="10" x1="34.882" y1="27.153" x2="25.247" y2="36.789"/>
	
		<line fill="none" stroke="#8DD6FF" stroke-linecap="round" stroke-miterlimit="10" x1="39.701" y1="27.153" x2="30.069" y2="36.789"/>
	
		<line fill="none" stroke="#8DD6FF" stroke-linecap="round" stroke-miterlimit="10" x1="12.244" y1="28.125" x2="7.095" y2="33.273"/>
	
		<line fill="none" stroke="#8DD6FF" stroke-linecap="round" stroke-miterlimit="10" x1="5.961" y1="34.471" x2="0.813" y2="39.618"/>
	
		<line fill="none" stroke="#8DD6FF" stroke-linecap="round" stroke-miterlimit="10" x1="10.782" y1="34.471" x2="5.634" y2="39.618"/>
	
		<line fill="none" stroke="#8DD6FF" stroke-linecap="round" stroke-miterlimit="10" x1="15.603" y1="34.471" x2="10.454" y2="39.618"/>
	
		<line fill="none" stroke="#8DD6FF" stroke-linecap="round" stroke-miterlimit="10" x1="20.422" y1="34.471" x2="15.275" y2="39.618"/>
	
		<line fill="none" stroke="#8DD6FF" stroke-linecap="round" stroke-miterlimit="10" x1="25.244" y1="34.471" x2="20.094" y2="39.618"/>
	
		<line fill="none" stroke="#8DD6FF" stroke-linecap="round" stroke-miterlimit="10" x1="30.066" y1="34.471" x2="24.916" y2="39.618"/>
	
		<line fill="none" stroke="#8DD6FF" stroke-linecap="round" stroke-miterlimit="10" x1="38.397" y1="30.96" x2="29.737" y2="39.618"/>
	
		<line fill="none" stroke="#8DD6FF" stroke-linecap="round" stroke-miterlimit="10" x1="17.064" y1="28.125" x2="11.916" y2="33.273"/>
	
		<line fill="none" stroke="#8DD6FF" stroke-linecap="round" stroke-miterlimit="10" x1="21.884" y1="28.125" x2="16.736" y2="33.273"/>
	
		<line fill="none" stroke="#8DD6FF" stroke-linecap="round" stroke-miterlimit="10" x1="26.706" y1="28.125" x2="21.557" y2="33.273"/>
	
		<line fill="none" stroke="#8DD6FF" stroke-linecap="round" stroke-miterlimit="10" x1="31.526" y1="28.125" x2="26.378" y2="33.273"/>
	
		<line fill="none" stroke="#8DD6FF" stroke-linecap="round" stroke-miterlimit="10" x1="36.347" y1="28.125" x2="31.199" y2="33.273"/>
	
		<line fill="none" stroke="#8DD6FF" stroke-linecap="round" stroke-miterlimit="10" x1="44.832" y1="24.269" x2="39.683" y2="29.417"/>
</g>
</svg>
