<?xml version="1.0" encoding="utf-8"?>
<!-- Generator: Adobe Illustrator 15.0.2, SVG Export Plug-In . SVG Version: 6.00 Build 0)  -->
<!DOCTYPE svg PUBLIC "-//W3C//DTD SVG 1.1//EN" "http://www.w3.org/Graphics/SVG/1.1/DTD/svg11.dtd">
<svg version="1.1" id="Layer_1" xmlns="http://www.w3.org/2000/svg" xmlns:xlink="http://www.w3.org/1999/xlink" x="0px" y="0px"
	 width="50px" height="50px" viewBox="0 0 50 50" enable-background="new 0 0 50 50" xml:space="preserve">
<g>
	
		<line fill="none" stroke="#8DD6FF" stroke-linecap="round" stroke-miterlimit="10" x1="34.97" y1="25.299" x2="25.251" y2="35.018"/>
	
		<line fill="none" stroke="#8DD6FF" stroke-linecap="round" stroke-miterlimit="10" x1="31.585" y1="26.279" x2="26.391" y2="31.473"/>
	
		<line fill="none" stroke="#8DD6FF" stroke-linecap="round" stroke-miterlimit="10" x1="25.247" y1="32.68" x2="20.053" y2="37.872"/>
	
		<line fill="none" stroke="#8DD6FF" stroke-linecap="round" stroke-miterlimit="10" x1="30.106" y1="25.299" x2="20.388" y2="35.018"/>
	
		<line fill="none" stroke="#8DD6FF" stroke-linecap="round" stroke-miterlimit="10" x1="26.723" y1="26.279" x2="21.528" y2="31.473"/>
	
		<line fill="none" stroke="#8DD6FF" stroke-linecap="round" stroke-miterlimit="10" x1="25.243" y1="25.299" x2="15.524" y2="35.018"/>
	
		<line fill="none" stroke="#8DD6FF" stroke-linecap="round" stroke-miterlimit="10" x1="21.858" y1="26.279" x2="16.665" y2="31.473"/>
	
		<line fill="none" stroke="#8DD6FF" stroke-linecap="round" stroke-miterlimit="10" x1="16.995" y1="26.279" x2="11.801" y2="31.473"/>
	
		<line fill="none" stroke="#8DD6FF" stroke-linecap="round" stroke-miterlimit="10" x1="20.38" y1="25.299" x2="10.661" y2="35.018"/>
	
		<line fill="none" stroke="#8DD6FF" stroke-linecap="round" stroke-miterlimit="10" x1="10.653" y1="25.299" x2="0.934" y2="35.018"/>
	
		<line fill="none" stroke="#8DD6FF" stroke-linecap="round" stroke-miterlimit="10" x1="15.517" y1="25.299" x2="5.797" y2="35.018"/>
	
		<line fill="none" stroke="#8DD6FF" stroke-linecap="round" stroke-miterlimit="10" x1="39.832" y1="25.299" x2="30.115" y2="35.018"/>
	
		<line fill="none" stroke="#8DD6FF" stroke-linecap="round" stroke-miterlimit="10" x1="12.132" y1="26.279" x2="6.938" y2="31.473"/>
	<line fill="none" stroke="#8DD6FF" stroke-linecap="round" stroke-miterlimit="10" x1="5.794" y1="32.68" x2="0.6" y2="37.872"/>
	
		<line fill="none" stroke="#8DD6FF" stroke-linecap="round" stroke-miterlimit="10" x1="10.658" y1="32.68" x2="5.464" y2="37.872"/>
	
		<line fill="none" stroke="#8DD6FF" stroke-linecap="round" stroke-miterlimit="10" x1="15.521" y1="32.68" x2="10.327" y2="37.872"/>
	
		<line fill="none" stroke="#8DD6FF" stroke-linecap="round" stroke-miterlimit="10" x1="20.383" y1="32.68" x2="15.19" y2="37.872"/>
	
		<line fill="none" stroke="#8DD6FF" stroke-linecap="round" stroke-miterlimit="10" x1="30.11" y1="32.68" x2="24.916" y2="37.872"/>
	
		<line fill="none" stroke="#8DD6FF" stroke-linecap="round" stroke-miterlimit="10" x1="38.516" y1="29.137" x2="29.779" y2="37.872"/>
	
		<line fill="none" stroke="#8DD6FF" stroke-linecap="round" stroke-miterlimit="10" x1="36.448" y1="26.279" x2="31.254" y2="31.473"/>
	<polygon fill="#F1C40F" points="20.291,21.91 26.996,21.9 24.976,25.727 31.957,25.727 16.32,41.55 23.23,28.53 16.32,28.659 	"/>
	<g>
		<g>
			<path fill="#BDC3C7" d="M45.029,20.832c0,0.355-0.287,0.643-0.644,0.643H17.6c-0.355,0-0.644-0.288-0.644-0.643V16.81
				c0-0.355,0.289-0.644,0.644-0.644h26.786c0.356,0,0.644,0.289,0.644,0.644V20.832z"/>
			<circle fill="#BDC3C7" cx="43.945" cy="15.603" r="5.872"/>
			<circle fill="#BDC3C7" cx="18.267" cy="15.603" r="5.872"/>
			<circle fill="#BDC3C7" cx="30.993" cy="13.028" r="8.446"/>
		</g>
		<g>
			<circle fill="#ECF0F1" cx="38.188" cy="18.901" r="5.872"/>
			<path fill="#ECF0F1" d="M39.271,24.129c0,0.355-0.289,0.644-0.644,0.644H11.841c-0.355,0-0.643-0.288-0.643-0.644v-4.022
				c0-0.355,0.288-0.643,0.643-0.643h26.787c0.354,0,0.644,0.288,0.644,0.643V24.129z"/>
			<circle fill="#ECF0F1" cx="12.508" cy="18.901" r="5.872"/>
			<circle fill="#ECF0F1" cx="25.234" cy="16.327" r="8.446"/>
		</g>
	</g>
	
		<line fill="none" stroke="#8DD6FF" stroke-linecap="round" stroke-miterlimit="10" x1="45.008" y1="22.389" x2="39.813" y2="27.583"/>
</g>
</svg>
