<?xml version="1.0" encoding="utf-8"?>
<!-- Generator: Adobe Illustrator 15.0.2, SVG Export Plug-In . SVG Version: 6.00 Build 0)  -->
<!DOCTYPE svg PUBLIC "-//W3C//DTD SVG 1.1//EN" "http://www.w3.org/Graphics/SVG/1.1/DTD/svg11.dtd">
<svg version="1.1" id="Layer_1" xmlns="http://www.w3.org/2000/svg" xmlns:xlink="http://www.w3.org/1999/xlink" x="0px" y="0px"
	 width="50px" height="50px" viewBox="0 0 50 50" enable-background="new 0 0 50 50" xml:space="preserve">
<g>
	<circle fill="#FEF200" cx="28.06" cy="23.743" r="10.017"/>
	<line fill="none" stroke="#FEF200" stroke-linecap="round" stroke-miterlimit="10" x1="28.06" y1="12.619" x2="28.06" y2="3.08"/>
	
		<line fill="none" stroke="#FEF200" stroke-linecap="round" stroke-miterlimit="10" x1="43.078" y1="9.247" x2="36.334" y2="15.992"/>
	
		<line fill="none" stroke="#FEF200" stroke-linecap="round" stroke-miterlimit="10" x1="48.66" y1="23.743" x2="39.121" y2="23.743"/>
	
		<line fill="none" stroke="#F1C40F" stroke-linecap="round" stroke-miterlimit="10" x1="43.078" y1="37.889" x2="36.334" y2="31.146"/>
	
		<line fill="none" stroke="#FEF200" stroke-linecap="round" stroke-miterlimit="10" x1="16.927" y1="23.743" x2="7.388" y2="23.743"/>
	<line fill="none" stroke="#FEF200" stroke-linecap="round" stroke-miterlimit="10" x1="19.34" y1="16.52" x2="12.595" y2="9.774"/>
	
		<line fill="none" stroke="#F1C40F" stroke-width="5" stroke-linecap="round" stroke-miterlimit="10" x1="19.775" y1="31.571" x2="13.031" y2="38.317"/>
	<g>
		<path fill="#ECF0F1" d="M41.733,41.01c0,0.447-0.363,0.813-0.81,0.813H7.13c-0.449,0-0.813-0.365-0.813-0.813v-5.075
			c0-0.447,0.364-0.811,0.813-0.811h33.794c0.446,0,0.81,0.363,0.81,0.811V41.01z"/>
		<circle fill="#ECF0F1" cx="40.367" cy="34.414" r="7.407"/>
		<circle fill="#ECF0F1" cx="7.97" cy="34.414" r="7.408"/>
		<circle fill="#ECF0F1" cx="24.026" cy="31.166" r="10.655"/>
	</g>
</g>
</svg>
