<?xml version="1.0" encoding="utf-8"?>
<!-- Generator: Adobe Illustrator 15.0.2, SVG Export Plug-In . SVG Version: 6.00 Build 0)  -->
<!DOCTYPE svg PUBLIC "-//W3C//DTD SVG 1.1//EN" "http://www.w3.org/Graphics/SVG/1.1/DTD/svg11.dtd">
<svg version="1.1" id="Layer_1" xmlns="http://www.w3.org/2000/svg" xmlns:xlink="http://www.w3.org/1999/xlink" x="0px" y="0px"
	 width="50px" height="50px" viewBox="0 0 50 50" enable-background="new 0 0 50 50" xml:space="preserve">
<g>
	<g>
		<g>
			<path fill="#BDC3C7" d="M43.987,20.061c0,0.401-0.324,0.728-0.727,0.728H12.992c-0.401,0-0.728-0.326-0.728-0.728v-4.544
				c0-0.402,0.326-0.727,0.728-0.727h30.269c0.402,0,0.727,0.325,0.727,0.727V20.061z"/>
			<circle fill="#BDC3C7" cx="42.764" cy="14.153" r="6.636"/>
			<circle fill="#BDC3C7" cx="13.744" cy="14.153" r="6.635"/>
			<circle fill="#BDC3C7" cx="28.127" cy="11.244" r="9.544"/>
		</g>
		<g>
			<path fill="#ECF0F1" d="M37.479,23.788c0,0.402-0.324,0.727-0.726,0.727H6.484c-0.401,0-0.727-0.325-0.727-0.727v-4.545
				c0-0.402,0.325-0.728,0.727-0.728h30.27c0.401,0,0.726,0.326,0.726,0.728V23.788z"/>
			<circle fill="#ECF0F1" cx="36.256" cy="17.879" r="6.636"/>
			<circle fill="#ECF0F1" cx="7.237" cy="17.879" r="6.636"/>
			<circle fill="#ECF0F1" cx="21.619" cy="14.971" r="9.544"/>
		</g>
	</g>
	
		<line fill="none" stroke="#ECF0F1" stroke-linecap="round" stroke-miterlimit="10" x1="7.771" y1="29.262" x2="7.771" y2="25.363"/>
	
		<line fill="none" stroke="#ECF0F1" stroke-linecap="round" stroke-miterlimit="10" x1="7.771" y1="29.373" x2="10.073" y2="27.068"/>
	<line fill="none" stroke="#ECF0F1" stroke-linecap="round" stroke-miterlimit="10" x1="7.771" y1="26.934" x2="8.79" y2="25.916"/>
	
		<line fill="none" stroke="#ECF0F1" stroke-linecap="round" stroke-miterlimit="10" x1="7.765" y1="29.373" x2="5.462" y2="27.068"/>
	
		<line fill="none" stroke="#ECF0F1" stroke-linecap="round" stroke-miterlimit="10" x1="7.765" y1="26.934" x2="6.746" y2="25.916"/>
	
		<line fill="none" stroke="#ECF0F1" stroke-linecap="round" stroke-miterlimit="10" x1="7.771" y1="29.801" x2="7.771" y2="33.699"/>
	
		<line fill="none" stroke="#ECF0F1" stroke-linecap="round" stroke-miterlimit="10" x1="7.771" y1="29.689" x2="10.073" y2="31.992"/>
	<line fill="none" stroke="#ECF0F1" stroke-linecap="round" stroke-miterlimit="10" x1="7.771" y1="32.129" x2="8.79" y2="33.146"/>
	
		<line fill="none" stroke="#ECF0F1" stroke-linecap="round" stroke-miterlimit="10" x1="7.765" y1="29.689" x2="5.462" y2="31.992"/>
	
		<line fill="none" stroke="#ECF0F1" stroke-linecap="round" stroke-miterlimit="10" x1="7.765" y1="32.129" x2="6.746" y2="33.146"/>
	
		<line fill="none" stroke="#ECF0F1" stroke-linecap="round" stroke-miterlimit="10" x1="10.358" y1="29.551" x2="11.377" y2="28.531"/>
	
		<line fill="none" stroke="#ECF0F1" stroke-linecap="round" stroke-miterlimit="10" x1="8.031" y1="29.553" x2="11.929" y2="29.553"/>
	
		<line fill="none" stroke="#ECF0F1" stroke-linecap="round" stroke-miterlimit="10" x1="10.358" y1="29.553" x2="11.377" y2="30.572"/>
	
		<line fill="none" stroke="#ECF0F1" stroke-linecap="round" stroke-miterlimit="10" x1="5.178" y1="29.551" x2="4.158" y2="28.531"/>
	
		<line fill="none" stroke="#ECF0F1" stroke-linecap="round" stroke-miterlimit="10" x1="7.506" y1="29.553" x2="3.607" y2="29.553"/>
	
		<line fill="none" stroke="#ECF0F1" stroke-linecap="round" stroke-miterlimit="10" x1="5.178" y1="29.553" x2="4.158" y2="30.572"/>
	<circle fill="#ECF0F1" cx="7.765" cy="29.553" r="0.79"/>
	
		<line fill="none" stroke="#ECF0F1" stroke-linecap="round" stroke-miterlimit="10" x1="43.768" y1="25.225" x2="43.768" y2="21.643"/>
	
		<line fill="none" stroke="#ECF0F1" stroke-linecap="round" stroke-miterlimit="10" x1="43.768" y1="25.327" x2="45.885" y2="23.211"/>
	
		<line fill="none" stroke="#ECF0F1" stroke-linecap="round" stroke-miterlimit="10" x1="43.768" y1="23.085" x2="44.705" y2="22.15"/>
	
		<line fill="none" stroke="#ECF0F1" stroke-linecap="round" stroke-miterlimit="10" x1="43.765" y1="25.327" x2="41.649" y2="23.211"/>
	
		<line fill="none" stroke="#ECF0F1" stroke-linecap="round" stroke-miterlimit="10" x1="43.765" y1="23.085" x2="42.828" y2="22.15"/>
	
		<line fill="none" stroke="#ECF0F1" stroke-linecap="round" stroke-miterlimit="10" x1="43.768" y1="25.721" x2="43.768" y2="29.301"/>
	
		<line fill="none" stroke="#ECF0F1" stroke-linecap="round" stroke-miterlimit="10" x1="43.768" y1="25.618" x2="45.885" y2="27.734"/>
	
		<line fill="none" stroke="#ECF0F1" stroke-linecap="round" stroke-miterlimit="10" x1="43.768" y1="27.857" x2="44.705" y2="28.793"/>
	
		<line fill="none" stroke="#ECF0F1" stroke-linecap="round" stroke-miterlimit="10" x1="43.765" y1="25.618" x2="41.649" y2="27.734"/>
	
		<line fill="none" stroke="#ECF0F1" stroke-linecap="round" stroke-miterlimit="10" x1="43.765" y1="27.857" x2="42.828" y2="28.793"/>
	
		<line fill="none" stroke="#ECF0F1" stroke-linecap="round" stroke-miterlimit="10" x1="46.147" y1="25.49" x2="47.083" y2="24.553"/>
	
		<line fill="none" stroke="#ECF0F1" stroke-linecap="round" stroke-miterlimit="10" x1="44.009" y1="25.494" x2="47.589" y2="25.494"/>
	
		<line fill="none" stroke="#ECF0F1" stroke-linecap="round" stroke-miterlimit="10" x1="46.147" y1="25.494" x2="47.083" y2="26.43"/>
	
		<line fill="none" stroke="#ECF0F1" stroke-linecap="round" stroke-miterlimit="10" x1="41.387" y1="25.49" x2="40.451" y2="24.553"/>
	
		<line fill="none" stroke="#ECF0F1" stroke-linecap="round" stroke-miterlimit="10" x1="43.525" y1="25.494" x2="39.942" y2="25.494"/>
	
		<line fill="none" stroke="#ECF0F1" stroke-linecap="round" stroke-miterlimit="10" x1="41.387" y1="25.494" x2="40.451" y2="26.43"/>
	<circle fill="#ECF0F1" cx="43.764" cy="25.494" r="0.726"/>
	
		<line fill="none" stroke="#ECF0F1" stroke-linecap="round" stroke-miterlimit="10" x1="22.329" y1="35.58" x2="22.329" y2="31.139"/>
	
		<line fill="none" stroke="#ECF0F1" stroke-linecap="round" stroke-miterlimit="10" x1="22.329" y1="35.707" x2="24.952" y2="33.084"/>
	
		<line fill="none" stroke="#ECF0F1" stroke-linecap="round" stroke-miterlimit="10" x1="22.329" y1="32.928" x2="23.489" y2="31.768"/>
	
		<line fill="none" stroke="#ECF0F1" stroke-linecap="round" stroke-miterlimit="10" x1="22.323" y1="35.707" x2="19.699" y2="33.084"/>
	
		<line fill="none" stroke="#ECF0F1" stroke-linecap="round" stroke-miterlimit="10" x1="22.323" y1="32.928" x2="21.163" y2="31.768"/>
	
		<line fill="none" stroke="#ECF0F1" stroke-linecap="round" stroke-miterlimit="10" x1="22.329" y1="36.197" x2="22.329" y2="40.637"/>
	
		<line fill="none" stroke="#ECF0F1" stroke-linecap="round" stroke-miterlimit="10" x1="22.329" y1="36.07" x2="24.952" y2="38.693"/>
	
		<line fill="none" stroke="#ECF0F1" stroke-linecap="round" stroke-miterlimit="10" x1="22.329" y1="38.848" x2="23.489" y2="40.008"/>
	
		<line fill="none" stroke="#ECF0F1" stroke-linecap="round" stroke-miterlimit="10" x1="22.323" y1="36.07" x2="19.699" y2="38.693"/>
	
		<line fill="none" stroke="#ECF0F1" stroke-linecap="round" stroke-miterlimit="10" x1="22.323" y1="38.848" x2="21.163" y2="40.008"/>
	
		<line fill="none" stroke="#ECF0F1" stroke-linecap="round" stroke-miterlimit="10" x1="25.276" y1="35.91" x2="26.438" y2="34.748"/>
	
		<line fill="none" stroke="#ECF0F1" stroke-linecap="round" stroke-miterlimit="10" x1="22.625" y1="35.916" x2="27.066" y2="35.916"/>
	
		<line fill="none" stroke="#ECF0F1" stroke-linecap="round" stroke-miterlimit="10" x1="25.276" y1="35.916" x2="26.438" y2="37.076"/>
	
		<line fill="none" stroke="#ECF0F1" stroke-linecap="round" stroke-miterlimit="10" x1="19.375" y1="35.91" x2="18.215" y2="34.748"/>
	
		<line fill="none" stroke="#ECF0F1" stroke-linecap="round" stroke-miterlimit="10" x1="22.027" y1="35.916" x2="17.585" y2="35.916"/>
	
		<line fill="none" stroke="#ECF0F1" stroke-linecap="round" stroke-miterlimit="10" x1="19.375" y1="35.916" x2="18.215" y2="37.076"/>
	<circle fill="#ECF0F1" cx="22.323" cy="35.916" r="0.901"/>
	
		<line fill="none" stroke="#ECF0F1" stroke-linecap="round" stroke-miterlimit="10" x1="12.236" y1="37.398" x2="12.236" y2="34.025"/>
	
		<line fill="none" stroke="#ECF0F1" stroke-linecap="round" stroke-miterlimit="10" x1="12.236" y1="37.496" x2="14.229" y2="35.502"/>
	
		<line fill="none" stroke="#ECF0F1" stroke-linecap="round" stroke-miterlimit="10" x1="12.236" y1="35.385" x2="13.118" y2="34.502"/>
	
		<line fill="none" stroke="#ECF0F1" stroke-linecap="round" stroke-miterlimit="10" x1="12.233" y1="37.496" x2="10.24" y2="35.502"/>
	
		<line fill="none" stroke="#ECF0F1" stroke-linecap="round" stroke-miterlimit="10" x1="12.233" y1="35.385" x2="11.351" y2="34.502"/>
	
		<line fill="none" stroke="#ECF0F1" stroke-linecap="round" stroke-miterlimit="10" x1="12.236" y1="37.867" x2="12.236" y2="41.238"/>
	
		<line fill="none" stroke="#ECF0F1" stroke-linecap="round" stroke-miterlimit="10" x1="12.236" y1="37.77" x2="14.229" y2="39.762"/>
	
		<line fill="none" stroke="#ECF0F1" stroke-linecap="round" stroke-miterlimit="10" x1="12.236" y1="39.879" x2="13.118" y2="40.762"/>
	
		<line fill="none" stroke="#ECF0F1" stroke-linecap="round" stroke-miterlimit="10" x1="12.233" y1="37.77" x2="10.24" y2="39.762"/>
	
		<line fill="none" stroke="#ECF0F1" stroke-linecap="round" stroke-miterlimit="10" x1="12.233" y1="39.879" x2="11.351" y2="40.762"/>
	
		<line fill="none" stroke="#ECF0F1" stroke-linecap="round" stroke-miterlimit="10" x1="14.476" y1="37.648" x2="15.356" y2="36.766"/>
	
		<line fill="none" stroke="#ECF0F1" stroke-linecap="round" stroke-miterlimit="10" x1="12.461" y1="37.652" x2="15.835" y2="37.652"/>
	
		<line fill="none" stroke="#ECF0F1" stroke-linecap="round" stroke-miterlimit="10" x1="14.476" y1="37.652" x2="15.356" y2="38.535"/>
	
		<line fill="none" stroke="#ECF0F1" stroke-linecap="round" stroke-miterlimit="10" x1="9.993" y1="37.648" x2="9.112" y2="36.766"/>
	
		<line fill="none" stroke="#ECF0F1" stroke-linecap="round" stroke-miterlimit="10" x1="12.008" y1="37.652" x2="8.634" y2="37.652"/>
	
		<line fill="none" stroke="#ECF0F1" stroke-linecap="round" stroke-miterlimit="10" x1="9.993" y1="37.652" x2="9.112" y2="38.535"/>
	<circle fill="#ECF0F1" cx="12.233" cy="37.652" r="0.684"/>
	
		<line fill="none" stroke="#ECF0F1" stroke-linecap="round" stroke-miterlimit="10" x1="34.362" y1="31.686" x2="34.362" y2="27.244"/>
	
		<line fill="none" stroke="#ECF0F1" stroke-linecap="round" stroke-miterlimit="10" x1="34.362" y1="31.811" x2="36.987" y2="29.188"/>
	
		<line fill="none" stroke="#ECF0F1" stroke-linecap="round" stroke-miterlimit="10" x1="34.362" y1="29.033" x2="35.523" y2="27.873"/>
	
		<line fill="none" stroke="#ECF0F1" stroke-linecap="round" stroke-miterlimit="10" x1="34.356" y1="31.811" x2="31.733" y2="29.188"/>
	
		<line fill="none" stroke="#ECF0F1" stroke-linecap="round" stroke-miterlimit="10" x1="34.356" y1="29.033" x2="33.197" y2="27.873"/>
	
		<line fill="none" stroke="#ECF0F1" stroke-linecap="round" stroke-miterlimit="10" x1="34.362" y1="32.301" x2="34.362" y2="36.742"/>
	
		<line fill="none" stroke="#ECF0F1" stroke-linecap="round" stroke-miterlimit="10" x1="34.362" y1="32.176" x2="36.987" y2="34.797"/>
	
		<line fill="none" stroke="#ECF0F1" stroke-linecap="round" stroke-miterlimit="10" x1="34.362" y1="34.953" x2="35.523" y2="36.113"/>
	
		<line fill="none" stroke="#ECF0F1" stroke-linecap="round" stroke-miterlimit="10" x1="34.356" y1="32.176" x2="31.733" y2="34.797"/>
	
		<line fill="none" stroke="#ECF0F1" stroke-linecap="round" stroke-miterlimit="10" x1="34.356" y1="34.953" x2="33.197" y2="36.113"/>
	
		<line fill="none" stroke="#ECF0F1" stroke-linecap="round" stroke-miterlimit="10" x1="37.313" y1="32.014" x2="38.472" y2="30.854"/>
	<line fill="none" stroke="#ECF0F1" stroke-linecap="round" stroke-miterlimit="10" x1="34.659" y1="32.02" x2="39.1" y2="32.02"/>
	
		<line fill="none" stroke="#ECF0F1" stroke-linecap="round" stroke-miterlimit="10" x1="37.313" y1="32.02" x2="38.472" y2="33.182"/>
	
		<line fill="none" stroke="#ECF0F1" stroke-linecap="round" stroke-miterlimit="10" x1="31.41" y1="32.014" x2="30.25" y2="30.854"/>
	<line fill="none" stroke="#ECF0F1" stroke-linecap="round" stroke-miterlimit="10" x1="34.061" y1="32.02" x2="29.62" y2="32.02"/>
	<line fill="none" stroke="#ECF0F1" stroke-linecap="round" stroke-miterlimit="10" x1="31.41" y1="32.02" x2="30.25" y2="33.182"/>
	<circle fill="#ECF0F1" cx="34.357" cy="32.02" r="0.9"/>
	
		<line fill="none" stroke="#ECF0F1" stroke-linecap="round" stroke-miterlimit="10" x1="17.246" y1="28.789" x2="17.246" y2="26.148"/>
	
		<line fill="none" stroke="#ECF0F1" stroke-linecap="round" stroke-miterlimit="10" x1="17.246" y1="28.863" x2="18.806" y2="27.303"/>
	
		<line fill="none" stroke="#ECF0F1" stroke-linecap="round" stroke-miterlimit="10" x1="17.246" y1="27.211" x2="17.937" y2="26.523"/>
	
		<line fill="none" stroke="#ECF0F1" stroke-linecap="round" stroke-miterlimit="10" x1="17.243" y1="28.863" x2="15.682" y2="27.303"/>
	
		<line fill="none" stroke="#ECF0F1" stroke-linecap="round" stroke-miterlimit="10" x1="17.243" y1="27.211" x2="16.553" y2="26.523"/>
	
		<line fill="none" stroke="#ECF0F1" stroke-linecap="round" stroke-miterlimit="10" x1="17.246" y1="29.152" x2="17.246" y2="31.795"/>
	
		<line fill="none" stroke="#ECF0F1" stroke-linecap="round" stroke-miterlimit="10" x1="17.246" y1="29.08" x2="18.806" y2="30.639"/>
	
		<line fill="none" stroke="#ECF0F1" stroke-linecap="round" stroke-miterlimit="10" x1="17.246" y1="30.73" x2="17.937" y2="31.42"/>
	
		<line fill="none" stroke="#ECF0F1" stroke-linecap="round" stroke-miterlimit="10" x1="17.243" y1="29.08" x2="15.682" y2="30.639"/>
	
		<line fill="none" stroke="#ECF0F1" stroke-linecap="round" stroke-miterlimit="10" x1="17.243" y1="30.73" x2="16.553" y2="31.42"/>
	
		<line fill="none" stroke="#ECF0F1" stroke-linecap="round" stroke-miterlimit="10" x1="18.999" y1="28.982" x2="19.689" y2="28.293"/>
	
		<line fill="none" stroke="#ECF0F1" stroke-linecap="round" stroke-miterlimit="10" x1="17.422" y1="28.988" x2="20.063" y2="28.988"/>
	
		<line fill="none" stroke="#ECF0F1" stroke-linecap="round" stroke-miterlimit="10" x1="18.999" y1="28.988" x2="19.689" y2="29.676"/>
	<line fill="none" stroke="#ECF0F1" stroke-linecap="round" stroke-miterlimit="10" x1="15.49" y1="28.982" x2="14.8" y2="28.293"/>
	
		<line fill="none" stroke="#ECF0F1" stroke-linecap="round" stroke-miterlimit="10" x1="17.067" y1="28.988" x2="14.427" y2="28.988"/>
	<line fill="none" stroke="#ECF0F1" stroke-linecap="round" stroke-miterlimit="10" x1="15.49" y1="28.988" x2="14.8" y2="29.676"/>
	<circle fill="#ECF0F1" cx="17.243" cy="28.988" r="0.535"/>
	
		<line fill="none" stroke="#ECF0F1" stroke-linecap="round" stroke-miterlimit="10" x1="26.419" y1="27.873" x2="26.419" y2="25.25"/>
	
		<line fill="none" stroke="#ECF0F1" stroke-linecap="round" stroke-miterlimit="10" x1="26.419" y1="27.947" x2="27.969" y2="26.396"/>
	
		<line fill="none" stroke="#ECF0F1" stroke-linecap="round" stroke-miterlimit="10" x1="26.419" y1="26.307" x2="27.105" y2="25.622"/>
	
		<line fill="none" stroke="#ECF0F1" stroke-linecap="round" stroke-miterlimit="10" x1="26.416" y1="27.947" x2="24.867" y2="26.396"/>
	
		<line fill="none" stroke="#ECF0F1" stroke-linecap="round" stroke-miterlimit="10" x1="26.416" y1="26.307" x2="25.73" y2="25.622"/>
	
		<line fill="none" stroke="#ECF0F1" stroke-linecap="round" stroke-miterlimit="10" x1="26.419" y1="28.234" x2="26.419" y2="30.855"/>
	
		<line fill="none" stroke="#ECF0F1" stroke-linecap="round" stroke-miterlimit="10" x1="26.419" y1="28.16" x2="27.969" y2="29.709"/>
	
		<line fill="none" stroke="#ECF0F1" stroke-linecap="round" stroke-miterlimit="10" x1="26.419" y1="29.801" x2="27.105" y2="30.486"/>
	
		<line fill="none" stroke="#ECF0F1" stroke-linecap="round" stroke-miterlimit="10" x1="26.416" y1="28.16" x2="24.867" y2="29.709"/>
	
		<line fill="none" stroke="#ECF0F1" stroke-linecap="round" stroke-miterlimit="10" x1="26.416" y1="29.801" x2="25.73" y2="30.486"/>
	
		<line fill="none" stroke="#ECF0F1" stroke-linecap="round" stroke-miterlimit="10" x1="28.16" y1="28.064" x2="28.846" y2="27.381"/>
	
		<line fill="none" stroke="#ECF0F1" stroke-linecap="round" stroke-miterlimit="10" x1="26.594" y1="28.07" x2="29.216" y2="28.07"/>
	
		<line fill="none" stroke="#ECF0F1" stroke-linecap="round" stroke-miterlimit="10" x1="28.16" y1="28.07" x2="28.846" y2="28.754"/>
	
		<line fill="none" stroke="#ECF0F1" stroke-linecap="round" stroke-miterlimit="10" x1="24.676" y1="28.064" x2="23.991" y2="27.381"/>
	
		<line fill="none" stroke="#ECF0F1" stroke-linecap="round" stroke-miterlimit="10" x1="26.242" y1="28.07" x2="23.619" y2="28.07"/>
	
		<line fill="none" stroke="#ECF0F1" stroke-linecap="round" stroke-miterlimit="10" x1="24.676" y1="28.07" x2="23.991" y2="28.754"/>
	<circle fill="#ECF0F1" cx="26.417" cy="28.07" r="0.532"/>
</g>
</svg>
